<svg width="435" height="471" viewBox="0 0 435 471" fill="none" xmlns="http://www.w3.org/2000/svg">
<path d="M392 87.5002H43V0.500244H164C164 17.621 187.953 31.5002 217.5 31.5002C247.047 31.5002 271 17.621 271 0.500244H392V87.5002Z" fill="#B5855D"/>
<path d="M101 22.5L103.5 46.5H17.5L101 22.5Z" fill="#94704E"/>
<path d="M333.5 22.5L331 46.5H417L333.5 22.5Z" fill="#94704E"/>
<path d="M42.5 0L101 22.5L43 39L42.5 0Z" fill="#C59066"/>
<path d="M392 0L333.5 22.5L391.5 39L392 0Z" fill="#C59066"/>
<path d="M435 470.5H0L17.5 46.5H154.006C154.471 66.4279 182.72 82.5 217.5 82.5C252.28 82.5 280.529 66.4279 280.994 46.5H417L435 470.5Z" fill="#D3B08A"/>
</svg>
